<?xml version="1.0" encoding="UTF-8" standalone="no"?>
<!DOCTYPE svg PUBLIC "-//W3C//DTD SVG 1.1//EN" "http://www.w3.org/Graphics/SVG/1.1/DTD/svg11.dtd">
<svg width="100%" height="100%" viewBox="0 0 40 41" version="1.1" xmlns="http://www.w3.org/2000/svg" xmlns:xlink="http://www.w3.org/1999/xlink" xml:space="preserve" xmlns:serif="http://www.serif.com/" style="fill-rule:evenodd;clip-rule:evenodd;stroke-linejoin:round;stroke-miterlimit:2;">
    <g transform="matrix(1,0,0,1,-390.686,-314.604)">
        <g id="Google" transform="matrix(0.0511459,0,0,0.0511459,390.078,314.149)">
            <g id="Color-">
                <g id="Google1" serif:id="Google">
                    <path id="Fill-1" d="M172.121,400C172.121,374.596 176.341,350.24 183.871,327.396L52.058,226.738C26.368,278.898 11.894,337.671 11.894,400C11.894,462.276 26.35,521.013 52.004,573.138L183.747,472.284C176.287,449.547 172.121,425.28 172.121,400" style="fill:rgb(251,188,5);"/>
                    <path id="Fill-2" d="M403.561,168.889C458.75,168.889 508.598,188.444 547.765,220.444L661.705,106.667C592.273,46.222 503.258,8.889 403.561,8.889C248.781,8.889 115.757,97.404 52.058,226.738L183.871,327.396C214.243,235.2 300.819,168.889 403.561,168.889" style="fill:rgb(235,67,53);"/>
                    <path id="Fill-3" d="M403.561,631.111C300.819,631.111 214.243,564.8 183.871,472.604L52.058,573.244C115.757,702.596 248.781,791.111 403.561,791.111C499.092,791.111 590.297,757.191 658.749,693.636L533.63,596.907C498.326,619.147 453.872,631.111 403.561,631.111" style="fill:rgb(52,168,83);"/>
                    <path id="Fill-4" d="M777.424,400C777.424,376.889 773.864,352 768.523,328.889L403.561,328.889L403.561,480L613.636,480C603.133,531.52 574.541,571.129 533.63,596.907L658.749,693.636C730.656,626.898 777.424,527.484 777.424,400" style="fill:rgb(66,133,244);"/>
                </g>
            </g>
        </g>
    </g>
</svg>
